<svg width="4" height="58" viewBox="0 0 4 58" fill="none" xmlns="http://www.w3.org/2000/svg">
<path d="M3.79781 56.1918V50.213C3.79781 50.0146 3.75668 49.824 3.67224 49.6412C3.58781 49.4583 3.46657 49.2969 3.3107 49.1569C3.15482 49.0149 2.97513 48.9079 2.77162 48.8321C2.56812 48.7562 2.35595 48.7173 2.13513 48.7173C1.91647 48.7173 1.7043 48.7562 1.5008 48.8321C1.29729 48.9079 1.1176 49.0149 0.961723 49.1569C0.805847 49.2969 0.684609 49.4583 0.600177 49.6412C0.515743 49.824 0.474609 50.0146 0.474609 50.213V56.1918C0.474609 56.3902 0.515743 56.5808 0.600177 56.7656C0.684609 56.9484 0.805847 57.1098 0.961723 57.2499C1.1176 57.3899 1.29729 57.4969 1.5008 57.5727C1.7043 57.6486 1.91647 57.6875 2.13513 57.6875C2.35595 57.6875 2.56812 57.6486 2.77162 57.5727C2.97513 57.4969 3.15482 57.3899 3.3107 57.2499C3.46657 57.1098 3.58781 56.9484 3.67224 56.7656C3.75668 56.5808 3.79781 56.3902 3.79781 56.1918ZM3.79781 44.2342V38.2534C3.79781 38.055 3.75668 37.8644 3.67224 37.6816C3.58781 37.4987 3.46657 37.3373 3.3107 37.1973C3.15482 37.0572 2.97513 36.9483 2.77162 36.8725C2.56812 36.7966 2.35595 36.7597 2.13513 36.7597C1.91647 36.7597 1.7043 36.7966 1.5008 36.8725C1.29729 36.9483 1.1176 37.0572 0.961723 37.1973C0.805847 37.3373 0.684609 37.4987 0.600177 37.6816C0.515743 37.8644 0.474609 38.055 0.474609 38.2534V44.2342C0.474609 44.4326 0.515743 44.6232 0.600177 44.806C0.684609 44.9888 0.805847 45.1502 0.961723 45.2903C1.1176 45.4303 1.29729 45.5392 1.5008 45.6151C1.7043 45.6909 1.91647 45.7279 2.13513 45.7279C2.35595 45.7279 2.56812 45.6909 2.77162 45.6151C2.97513 45.5392 3.15482 45.4303 3.3107 45.2903C3.46657 45.1502 3.58781 44.9888 3.67224 44.806C3.75668 44.6232 3.79781 44.4326 3.79781 44.2342ZM3.79781 32.2746V26.2957C3.79781 26.0974 3.75668 25.9067 3.67224 25.722C3.58781 25.5391 3.46657 25.3777 3.3107 25.2377C3.15482 25.0976 2.97513 24.9907 2.77162 24.9148C2.56812 24.839 2.35595 24.8001 2.13513 24.8001C1.91647 24.8001 1.7043 24.839 1.5008 24.9148C1.29729 24.9907 1.1176 25.0976 0.961723 25.2377C0.805847 25.3777 0.684609 25.5391 0.600177 25.722C0.515743 25.9067 0.474609 26.0974 0.474609 26.2957V32.2746C0.474609 32.473 0.515743 32.6636 0.600177 32.8464C0.684609 33.0292 0.805847 33.1906 0.961723 33.3307C1.1176 33.4727 1.29729 33.5796 1.5008 33.6555C1.7043 33.7313 1.91647 33.7702 2.13513 33.7702C2.35595 33.7702 2.56812 33.7313 2.77162 33.6555C2.97513 33.5796 3.15482 33.4727 3.3107 33.3307C3.46657 33.1906 3.58781 33.0292 3.67224 32.8464C3.75668 32.6636 3.79781 32.473 3.79781 32.2746ZM3.79781 20.315V14.3361C3.79781 14.1378 3.75668 13.9471 3.67224 13.7643C3.58781 13.5815 3.46657 13.4201 3.3107 13.2781C3.15482 13.138 2.97513 13.0311 2.77162 12.9552C2.56812 12.8794 2.35595 12.8405 2.13513 12.8405C1.91647 12.8405 1.7043 12.8794 1.5008 12.9552C1.29729 13.0311 1.1176 13.138 0.961723 13.2781C0.805847 13.4201 0.684609 13.5815 0.600177 13.7643C0.515743 13.9471 0.474609 14.1378 0.474609 14.3361V20.315C0.474609 20.5134 0.515743 20.704 0.600177 20.8868C0.684609 21.0716 0.805847 21.233 0.961723 21.373C1.1176 21.5131 1.29729 21.62 1.5008 21.6959C1.7043 21.7717 1.91647 21.8106 2.13513 21.8106C2.35595 21.8106 2.56812 21.7717 2.77162 21.6959C2.97513 21.62 3.15482 21.5131 3.3107 21.373C3.46657 21.233 3.58781 21.0716 3.67224 20.8868C3.75668 20.704 3.79781 20.5134 3.79781 20.315ZM3.79781 8.35731V2.37654C3.79781 2.17815 3.75668 1.98755 3.67224 1.80472C3.58781 1.62189 3.46657 1.46046 3.3107 1.32042C3.15482 1.18039 2.97513 1.07147 2.77162 0.995613C2.56812 0.919762 2.35595 0.882805 2.13513 0.882805C1.91647 0.882805 1.7043 0.919762 1.5008 0.995613C1.29729 1.07147 1.1176 1.18039 0.961723 1.32042C0.805847 1.46046 0.684609 1.62189 0.600177 1.80472C0.515743 1.98755 0.474609 2.17815 0.474609 2.37654V8.35731C0.474609 8.55375 0.515743 8.7463 0.600177 8.92913C0.684609 9.11196 0.805847 9.27339 0.961723 9.41343C1.1176 9.55347 1.29729 9.66238 1.5008 9.73824C1.7043 9.81409 1.91647 9.85105 2.13513 9.85105C2.35595 9.85105 2.56812 9.81409 2.77162 9.73824C2.97513 9.66238 3.15482 9.55347 3.3107 9.41343C3.46657 9.27339 3.58781 9.11196 3.67224 8.92913C3.75668 8.7463 3.79781 8.55375 3.79781 8.35731Z" fill="#AC2A28"/>
</svg>
